<svg fill="#ffffff" xmlns="http://www.w3.org/2000/svg"  viewBox="0 0 128 128" width="100px" height="100px"><path d="M 24 18 C 16.8 18 11 23.8 11 31 L 11 87 C 11 88.7 12.3 90 14 90 C 15.7 90 17 88.7 17 87 L 17 31 C 17 27.1 20.1 24 24 24 L 104 24 C 107.9 24 111 27.1 111 31 L 111 87 C 111 88.7 112.3 90 114 90 C 115.7 90 117 88.7 117 87 L 117 31 C 117 23.8 111.2 18 104 18 L 24 18 z M 72 35.644531 C 70.81875 35.705469 69.750781 36.399609 69.300781 37.599609 L 52.800781 82 C 52.300781 83.6 52.999609 85.300391 54.599609 85.900391 C 54.899609 86.000391 55.100391 86.099609 55.400391 86.099609 C 56.700391 86.299609 58 85.499219 58.5 84.199219 L 75.099609 39.900391 C 75.699609 38.300391 74.899219 36.600781 73.199219 35.800781 C 72.799219 35.675781 72.39375 35.624219 72 35.644531 z M 46.037109 46.9375 C 45.274609 46.9 44.500391 47.149219 43.900391 47.699219 L 31.800781 58.800781 C 31.200781 59.300781 30.800781 60.2 30.800781 61 C 30.800781 61.8 31.200781 62.599219 31.800781 63.199219 L 43.900391 74.199219 C 44.500391 74.799219 45.200391 75 45.900391 75 C 46.700391 75 47.499609 74.7 48.099609 74 C 49.199609 72.8 49.100391 70.900781 47.900391 69.800781 L 38.300781 61 L 47.900391 52.099609 C 49.100391 50.999609 49.199609 49.100391 48.099609 47.900391 C 47.549609 47.300391 46.799609 46.975 46.037109 46.9375 z M 81.962891 47.136719 C 81.200391 47.174219 80.450391 47.499609 79.900391 48.099609 C 78.800391 49.299609 78.899609 51.200781 80.099609 52.300781 L 89.699219 61.099609 L 80.099609 69.900391 C 78.899609 71.000391 78.800391 72.899609 79.900391 74.099609 C 80.500391 74.799609 81.299609 75.099609 82.099609 75.099609 C 82.799609 75.099609 83.499609 74.800781 84.099609 74.300781 L 96.199219 63.199219 C 96.799219 62.699219 97.199219 61.999219 97.199219 61.199219 C 97.199219 60.399219 96.799219 59.6 96.199219 59 L 84.099609 47.900391 C 83.499609 47.350391 82.725391 47.099219 81.962891 47.136719 z M 4 98 C 2.3 98 1 99.3 1 101 L 1 104 C 1 111.2 6.8 117 14 117 L 114 117 C 121.2 117 127 111.2 127 104 L 127 101 C 127 99.3 125.7 98 124 98 L 4 98 z M 7 104 L 121 104 C 121 107.9 117.9 111 114 111 L 14 111 C 10.1 111 7 107.9 7 104 z"/></svg>