<svg fill="#000000" xmlns="http://www.w3.org/2000/svg"  viewBox="0 0 64 64" width="100px" height="100px"><path d="M 7 6 C 5.347656 6 4 7.347656 4 9 L 4 51 C 4 52.652344 5.347656 54 7 54 L 57 54 C 58.652344 54 60 52.652344 60 51 L 60 9 C 60 7.347656 58.652344 6 57 6 Z M 7 8 L 57 8 C 57.550781 8 58 8.449219 58 9 L 58 51 C 58 51.550781 57.550781 52 57 52 L 7 52 C 6.449219 52 6 51.550781 6 51 L 6 18 L 47 18 C 47.554688 18 48 17.550781 48 17 C 48 16.449219 47.554688 16 47 16 L 6 16 L 6 9 C 6 8.449219 6.449219 8 7 8 Z M 10 10 C 9.445313 10 9 10.449219 9 11 L 9 13 C 9 13.550781 9.445313 14 10 14 C 10.554688 14 11 13.550781 11 13 L 11 11 C 11 10.449219 10.554688 10 10 10 Z M 15 10 C 14.445313 10 14 10.449219 14 11 L 14 13 C 14 13.550781 14.445313 14 15 14 C 15.554688 14 16 13.550781 16 13 L 16 11 C 16 10.449219 15.554688 10 15 10 Z M 20 10 C 19.445313 10 19 10.449219 19 11 L 19 13 C 19 13.550781 19.445313 14 20 14 C 20.554688 14 21 13.550781 21 13 L 21 11 C 21 10.449219 20.554688 10 20 10 Z M 25 10 C 24.445313 10 24 10.449219 24 11 L 24 13 C 24 13.550781 24.445313 14 25 14 C 25.554688 14 26 13.550781 26 13 L 26 11 C 26 10.449219 25.554688 10 25 10 Z M 30 10 C 29.445313 10 29 10.449219 29 11 L 29 13 C 29 13.550781 29.445313 14 30 14 C 30.554688 14 31 13.550781 31 13 L 31 11 C 31 10.449219 30.554688 10 30 10 Z M 35 10 C 34.445313 10 34 10.449219 34 11 L 34 13 C 34 13.550781 34.445313 14 35 14 C 35.554688 14 36 13.550781 36 13 L 36 11 C 36 10.449219 35.554688 10 35 10 Z M 40 10 C 39.445313 10 39 10.449219 39 11 L 39 13 C 39 13.550781 39.445313 14 40 14 C 40.554688 14 41 13.550781 41 13 L 41 11 C 41 10.449219 40.554688 10 40 10 Z M 45 10 C 44.445313 10 44 10.449219 44 11 L 44 13 C 44 13.550781 44.445313 14 45 14 C 45.554688 14 46 13.550781 46 13 L 46 11 C 46 10.449219 45.554688 10 45 10 Z M 50 10 C 49.445313 10 49 10.449219 49 11 L 49 13 C 49 13.550781 49.445313 14 50 14 C 50.554688 14 51 13.550781 51 13 L 51 11 C 51 10.449219 50.554688 10 50 10 Z M 55 10 C 54.445313 10 54 10.449219 54 11 L 54 13 C 54 13.550781 54.445313 14 55 14 C 55.554688 14 56 13.550781 56 13 L 56 11 C 56 10.449219 55.554688 10 55 10 Z M 51 16 C 50.445313 16 50 16.449219 50 17 C 50 17.550781 50.445313 18 51 18 L 55 18 C 55.554688 18 56 17.550781 56 17 C 56 16.449219 55.554688 16 55 16 Z M 55 21 C 54.746094 21 54.488281 21.097656 54.292969 21.292969 L 47.285156 28.300781 C 46.894531 28.113281 46.460938 28 46 28 C 45.277344 28 44.621094 28.269531 44.105469 28.695313 L 38.9375 25.597656 C 38.976563 25.40625 39 25.203125 39 25 C 39 23.347656 37.652344 22 36 22 C 34.347656 22 33 23.347656 33 25 C 33 25.40625 33.082031 25.792969 33.230469 26.148438 L 27.421875 31.375 C 26.996094 31.144531 26.515625 31 26 31 C 25.105469 31 24.308594 31.402344 23.761719 32.027344 L 18.988281 30.117188 C 18.992188 30.078125 19 30.039063 19 30 C 19 28.347656 17.652344 27 16 27 C 14.347656 27 13 28.347656 13 30 C 13 30.285156 13.054688 30.558594 13.128906 30.824219 L 8.421875 34.1875 C 7.972656 34.507813 7.867188 35.132813 8.1875 35.578125 C 8.382813 35.851563 8.6875 36 9 36 C 9.203125 36 9.402344 35.9375 9.578125 35.8125 L 14.28125 32.453125 C 14.769531 32.796875 15.359375 33 16 33 C 16.894531 33 17.691406 32.597656 18.238281 31.972656 L 23.011719 33.882813 C 23.007813 33.921875 23 33.960938 23 34 C 23 35.652344 24.347656 37 26 37 C 27.652344 37 29 35.652344 29 34 C 29 33.59375 28.917969 33.207031 28.769531 32.851563 L 34.578125 27.625 C 35.003906 27.855469 35.484375 28 36 28 C 36.722656 28 37.378906 27.730469 37.894531 27.304688 L 43.0625 30.402344 C 43.023438 30.59375 43 30.796875 43 31 C 43 32.652344 44.347656 34 46 34 C 47.652344 34 49 32.652344 49 31 C 49 30.539063 48.886719 30.105469 48.699219 29.714844 L 55.707031 22.707031 C 56.097656 22.316406 56.097656 21.683594 55.707031 21.292969 C 55.511719 21.097656 55.253906 21 55 21 Z M 36 23.832031 C 36.644531 23.832031 37.167969 24.355469 37.167969 25 C 37.167969 25.644531 36.644531 26.167969 36 26.167969 C 35.355469 26.167969 34.832031 25.644531 34.832031 25 C 34.832031 24.355469 35.355469 23.832031 36 23.832031 Z M 16 28.832031 C 16.644531 28.832031 17.167969 29.355469 17.167969 30 C 17.167969 30.644531 16.644531 31.167969 16 31.167969 C 15.355469 31.167969 14.832031 30.644531 14.832031 30 C 14.832031 29.355469 15.355469 28.832031 16 28.832031 Z M 46 29.792969 C 46.664063 29.792969 47.207031 30.335938 47.207031 31 C 47.207031 31.664063 46.667969 32.207031 46 32.207031 C 45.332031 32.207031 44.792969 31.664063 44.792969 31 C 44.792969 30.335938 45.335938 29.792969 46 29.792969 Z M 26 32.832031 C 26.644531 32.832031 27.167969 33.355469 27.167969 34 C 27.167969 34.644531 26.644531 35.167969 26 35.167969 C 25.355469 35.167969 24.832031 34.644531 24.832031 34 C 24.832031 33.355469 25.355469 32.832031 26 32.832031 Z M 33 34 C 32.445313 34 32 34.449219 32 35 L 32 48 L 30 48 L 30 43 C 30 42.449219 29.554688 42 29 42 L 23 42 C 22.445313 42 22 42.449219 22 43 L 22 48 L 20 48 L 20 39 C 20 38.449219 19.554688 38 19 38 L 13 38 C 12.445313 38 12 38.449219 12 39 L 12 48 L 11 48 C 10.445313 48 10 48.449219 10 49 C 10 49.550781 10.445313 50 11 50 L 51 50 C 51.554688 50 52 49.550781 52 49 C 52 48.449219 51.554688 48 51 48 L 50 48 L 50 41 C 50 40.449219 49.554688 40 49 40 L 43 40 C 42.445313 40 42 40.449219 42 41 L 42 48 L 40 48 L 40 35 C 40 34.449219 39.554688 34 39 34 Z M 34 36 L 38 36 L 38 48 L 34 48 Z M 14 40 L 18 40 L 18 48 L 14 48 Z M 44 42 L 48 42 L 48 48 L 44 48 Z M 24 44 L 28 44 L 28 48 L 24 48 Z"/></svg>