<svg fill="#000000" xmlns="http://www.w3.org/2000/svg"  viewBox="0 0 80 80" width="100px" height="100px"><path d="M 37.802734 8 C 37.093408 7.99102 36.431575 8.4086833 36.150391 9.0742188 L 36.148438 9.0761719 C 36.147861 9.0775419 36.147084 9.0786981 36.146484 9.0800781 L 36.134766 9.109375 L 36.132812 9.1113281 C 35.851743 9.7821151 36.032485 10.569148 36.566406 11.056641 L 36.566406 11.058594 L 42.869141 16.794922 C 42.621034 17.060194 42.343125 17.356951 41.976562 17.810547 C 41.167812 18.811323 40.169947 20.257184 39.365234 22 L 8 22 C 6.9069372 22 6 22.906937 6 24 L 6 60 C 6 61.093063 6.9069372 62 8 62 L 28 62 L 28 66 L 25 66 C 22.802666 66 21 67.802666 21 70 L 21 72 L 49 72 L 49 70 C 49 67.802666 47.197334 66 45 66 L 42 66 L 42 62 L 62 62 C 63.093063 62 64 61.093063 64 60 L 64 33.173828 C 64.881122 30.902481 65.197554 28.364302 65.347656 26 L 73 26 L 73 36.1875 C 71.842679 36.604868 71 37.706873 71 39 C 71 39.577909 71.185017 40.012788 71.396484 40.494141 C 71.607952 40.975493 71.87313 41.465022 72.134766 41.916016 C 72.658036 42.818004 73.177734 43.568359 73.177734 43.568359 L 74 44.759766 L 74.822266 43.568359 C 74.822266 43.568359 75.341964 42.818004 75.865234 41.916016 C 76.12687 41.465022 76.392048 40.975493 76.603516 40.494141 C 76.814983 40.012788 77 39.577909 77 39 C 77 37.706873 76.157321 36.604868 75 36.1875 L 75 25.800781 C 75.369178 25.618304 75.681451 25.323797 75.849609 24.925781 L 75.851562 24.923828 L 75.865234 24.890625 L 75.867188 24.888672 C 76.148703 24.216815 75.965028 23.431377 75.4375 22.945312 L 60.685547 8.7089844 L 60.675781 8.7011719 C 60.192032 8.2575677 59.559454 8.0079597 58.900391 8 L 58.894531 8 L 37.802734 8 z M 38.375 10 L 58.876953 10 C 59.045251 10.002 59.204181 10.06812 59.322266 10.175781 L 59.324219 10.175781 L 73.650391 24 L 73 24 L 54.011719 24 C 53.842782 23.998 53.68267 23.93262 53.564453 23.824219 L 53.5625 23.824219 L 38.375 10 z M 44.347656 18.140625 L 52.212891 25.298828 C 52.696815 25.742385 53.329218 25.99204 53.988281 26 L 53.994141 26 L 63.337891 26 C 63.191341 27.963049 62.884094 29.95708 62.3125 31.722656 C 57.842212 30.088388 53.197457 29.946714 50.976562 30 L 50.458984 30 C 49.998915 29.323511 46.755934 24.881425 41.396484 22.599609 C 42.078491 21.224985 42.861286 19.897858 43.533203 19.066406 C 43.871756 18.647471 44.127646 18.375264 44.347656 18.140625 z M 8 24 L 39.816406 24 C 45.302099 25.89962 49.167969 31.554687 49.167969 31.554688 A 1.0001 1.0001 0 0 0 50 32 L 51 32 A 1.0001 1.0001 0 0 0 51.023438 32 C 53.186669 31.948099 57.837503 32.081148 62 33.693359 L 62 60 L 42 60 L 28 60 L 8 60 L 8 24 z M 74 38 C 74.56503 38 75 38.43497 75 39 C 75 38.97459 74.93502 39.317212 74.771484 39.689453 C 74.607952 40.061694 74.37313 40.501228 74.134766 40.912109 C 74.067436 41.028163 74.066126 41.017478 74 41.126953 C 73.93387 41.017478 73.93256 41.028163 73.865234 40.912109 C 73.62687 40.501228 73.392048 40.061694 73.228516 39.689453 C 73.064983 39.317212 73 38.974591 73 39 C 73 38.43497 73.43497 38 74 38 z M 11 54 A 1 1 0 0 0 10 55 A 1 1 0 0 0 11 56 A 1 1 0 0 0 12 55 A 1 1 0 0 0 11 54 z M 15 54 A 1 1 0 0 0 14 55 A 1 1 0 0 0 15 56 A 1 1 0 0 0 16 55 A 1 1 0 0 0 15 54 z M 19 54 A 1 1 0 0 0 18 55 A 1 1 0 0 0 19 56 A 1 1 0 0 0 20 55 A 1 1 0 0 0 19 54 z M 23 54 A 1 1 0 0 0 22 55 A 1 1 0 0 0 23 56 A 1 1 0 0 0 24 55 A 1 1 0 0 0 23 54 z M 27 54 A 1 1 0 0 0 26 55 A 1 1 0 0 0 27 56 A 1 1 0 0 0 28 55 A 1 1 0 0 0 27 54 z M 31 54 A 1 1 0 0 0 30 55 A 1 1 0 0 0 31 56 A 1 1 0 0 0 32 55 A 1 1 0 0 0 31 54 z M 35 54 A 1 1 0 0 0 34 55 A 1 1 0 0 0 35 56 A 1 1 0 0 0 36 55 A 1 1 0 0 0 35 54 z M 39 54 A 1 1 0 0 0 38 55 A 1 1 0 0 0 39 56 A 1 1 0 0 0 40 55 A 1 1 0 0 0 39 54 z M 43 54 A 1 1 0 0 0 42 55 A 1 1 0 0 0 43 56 A 1 1 0 0 0 44 55 A 1 1 0 0 0 43 54 z M 47 54 A 1 1 0 0 0 46 55 A 1 1 0 0 0 47 56 A 1 1 0 0 0 48 55 A 1 1 0 0 0 47 54 z M 51 54 A 1 1 0 0 0 50 55 A 1 1 0 0 0 51 56 A 1 1 0 0 0 52 55 A 1 1 0 0 0 51 54 z M 55 54 A 1 1 0 0 0 54 55 A 1 1 0 0 0 55 56 A 1 1 0 0 0 56 55 A 1 1 0 0 0 55 54 z M 59 54 A 1 1 0 0 0 58 55 A 1 1 0 0 0 59 56 A 1 1 0 0 0 60 55 A 1 1 0 0 0 59 54 z M 30 62 L 40 62 L 40 66 L 30 66 L 30 62 z M 25 68 L 45 68 C 46.116666 68 47 68.883334 47 70 L 23 70 C 23 68.883334 23.883334 68 25 68 z"/></svg>