<svg fill="#000000" xmlns="http://www.w3.org/2000/svg"  viewBox="0 0 80 80" width="100px" height="100px"><path d="M 64.558594 10.003906 C 63.160156 10.003906 61.765625 10.535156 60.703125 11.59375 L 59.859375 12.441406 L 59 11.585938 L 51.585938 19 L 15.140625 55.441406 L 9.257813 70.738281 L 24.558594 64.859375 L 24.707031 64.707031 L 68.414063 21 L 67.558594 20.140625 L 68.40625 19.296875 C 70.019531 17.679688 70.382813 15.289063 69.535156 13.300781 L 70.109375 13.300781 L 68.40625 11.59375 C 67.347656 10.539063 65.953125 10.007813 64.558594 10.003906 Z M 64.554688 11.996094 C 65.433594 11.996094 66.3125 12.332031 66.988281 13.011719 C 68.34375 14.363281 68.34375 16.527344 66.988281 17.878906 L 66.140625 18.730469 L 61.269531 13.859375 L 62.121094 13.011719 C 62.796875 12.332031 63.675781 11.992188 64.554688 11.996094 Z M 59 14.414063 L 65.585938 21 L 61.070313 25.515625 L 54.484375 18.929688 Z M 53 20.414063 L 59.585938 27 L 24.65625 61.929688 C 24.480469 61.378906 24.207031 60.792969 23.707031 60.292969 C 22.972656 59.558594 22.046875 59.289063 21.320313 59.144531 C 21.089844 59.097656 21.089844 59.121094 20.902344 59.097656 C 20.878906 58.910156 20.902344 58.910156 20.855469 58.679688 C 20.710938 57.953125 20.441406 57.027344 19.707031 56.292969 C 19.207031 55.792969 18.621094 55.519531 18.070313 55.34375 Z M 53 23 C 52.449219 23 52 23.449219 52 24 C 52 24.550781 52.449219 25 53 25 C 53.550781 25 54 24.550781 54 24 C 54 23.449219 53.550781 23 53 23 Z M 50 26 C 49.449219 26 49 26.449219 49 27 C 49 27.550781 49.449219 28 50 28 C 50.550781 28 51 27.550781 51 27 C 51 26.449219 50.550781 26 50 26 Z M 47 29 C 46.449219 29 46 29.449219 46 30 C 46 30.550781 46.449219 31 47 31 C 47.550781 31 48 30.550781 48 30 C 48 29.449219 47.550781 29 47 29 Z M 44 32 C 43.449219 32 43 32.449219 43 33 C 43 33.550781 43.449219 34 44 34 C 44.550781 34 45 33.550781 45 33 C 45 32.449219 44.550781 32 44 32 Z M 41 35 C 40.449219 35 40 35.449219 40 36 C 40 36.550781 40.449219 37 41 37 C 41.550781 37 42 36.550781 42 36 C 42 35.449219 41.550781 35 41 35 Z M 38 38 C 37.449219 38 37 38.449219 37 39 C 37 39.550781 37.449219 40 38 40 C 38.550781 40 39 39.550781 39 39 C 39 38.449219 38.550781 38 38 38 Z M 35 41 C 34.449219 41 34 41.449219 34 42 C 34 42.550781 34.449219 43 35 43 C 35.550781 43 36 42.550781 36 42 C 36 41.449219 35.550781 41 35 41 Z M 32 44 C 31.449219 44 31 44.449219 31 45 C 31 45.550781 31.449219 46 32 46 C 32.550781 46 33 45.550781 33 45 C 33 44.449219 32.550781 44 32 44 Z M 29 47 C 28.449219 47 28 47.449219 28 48 C 28 48.550781 28.449219 49 29 49 C 29.550781 49 30 48.550781 30 48 C 30 47.449219 29.550781 47 29 47 Z M 26 50 C 25.449219 50 25 50.449219 25 51 C 25 51.550781 25.449219 52 26 52 C 26.550781 52 27 51.550781 27 51 C 27 50.449219 26.550781 50 26 50 Z M 23 53 C 22.449219 53 22 53.449219 22 54 C 22 54.550781 22.449219 55 23 55 C 23.550781 55 24 54.550781 24 54 C 24 53.449219 23.550781 53 23 53 Z M 16.660156 57.066406 C 16.753906 57.082031 16.824219 57.085938 16.929688 57.105469 C 17.453125 57.210938 18.027344 57.441406 18.292969 57.707031 C 18.558594 57.972656 18.789063 58.546875 18.894531 59.070313 C 19 59.59375 19 60 19 60 L 19 61 L 20 61 C 20 61 20.40625 61 20.929688 61.105469 C 21.453125 61.210938 22.027344 61.441406 22.292969 61.707031 C 22.558594 61.972656 22.789063 62.546875 22.894531 63.070313 C 22.914063 63.175781 22.917969 63.246094 22.933594 63.339844 L 16.003906 66.003906 L 13.996094 63.996094 Z"/></svg>