<svg fill="#000000" xmlns="http://www.w3.org/2000/svg"  viewBox="0 0 32 32" width="100px" height="100px"><path d="M 15.5 2 L 15.5 4.5 L 13 4.5 L 13 5.5 L 15.5 5.5 L 15.5 8 L 16.5 8 L 16.5 5.5 L 19 5.5 L 19 4.5 L 16.5 4.5 L 16.5 2 L 15.5 2 z M 8 6 L 8 9 L 5 9 L 5 10 L 8 10 L 8 13 L 9 13 L 9 10 L 12 10 L 12 9 L 9 9 L 9 6 L 8 6 z M 23 6 L 23 9 L 20 9 L 20 10 L 23 10 L 23 13 L 24 13 L 24 10 L 27 10 L 27 9 L 24 9 L 24 6 L 23 6 z M 15 11 L 15 15 L 11 15 L 11 17 L 15 17 L 15 21 L 17 21 L 17 17 L 21 17 L 21 15 L 17 15 L 17 11 L 15 11 z M 4.5 13 L 4.5 15.5 L 2 15.5 L 2 16.5 L 4.5 16.5 L 4.5 19 L 5.5 19 L 5.5 16.5 L 8 16.5 L 8 15.5 L 5.5 15.5 L 5.5 13 L 4.5 13 z M 26.5 13 L 26.5 15.5 L 24 15.5 L 24 16.5 L 26.5 16.5 L 26.5 19 L 27.5 19 L 27.5 16.5 L 30 16.5 L 30 15.5 L 27.5 15.5 L 27.5 13 L 26.5 13 z M 8 19 L 8 22 L 5 22 L 5 23 L 8 23 L 8 26 L 9 26 L 9 23 L 12 23 L 12 22 L 9 22 L 9 19 L 8 19 z M 23 19 L 23 22 L 20 22 L 20 23 L 23 23 L 23 26 L 24 26 L 24 23 L 27 23 L 27 22 L 24 22 L 24 19 L 23 19 z M 15.5 24 L 15.5 26.5 L 13 26.5 L 13 27.5 L 15.5 27.5 L 15.5 30 L 16.5 30 L 16.5 27.5 L 19 27.5 L 19 26.5 L 16.5 26.5 L 16.5 24 L 15.5 24 z"/></svg>